<?xml version="1.0" encoding="utf-8"?>
<!-- Generator: Adobe Illustrator 16.0.0, SVG Export Plug-In . SVG Version: 6.00 Build 0)  -->
<!DOCTYPE svg PUBLIC "-//W3C//DTD SVG 1.1//EN" "http://www.w3.org/Graphics/SVG/1.1/DTD/svg11.dtd">
<svg version="1.1" id="Layer_1" xmlns="http://www.w3.org/2000/svg" xmlns:xlink="http://www.w3.org/1999/xlink" x="0px" y="0px"
	 width="800px" height="800px" viewBox="0 0 800 800" enable-background="new 0 0 800 800" xml:space="preserve">
<path d="M315.104,439.093h-62.211c-44.229,0-65.537,21.314-65.537,63.874v42.617c0,42.558,21.308,63.867,64.81,63.867h62.939
	l85.132,85.183c42.564,42.564,63.871,42.564,106.438,42.564h21.309V311.351h-20.791c-43.085,0-64.392,0-106.956,42.564
	L315.104,439.093z" fill="#3333aa"/>
<path d="M631.927,733.718l-19.281-38.669l7.744-5.77c47.345-39.082,77.543-98.226,77.543-164.381
	c0-66.103-30.198-125.201-77.543-164.279l-7.744-5.827l19.281-38.615l15.54,11.588c56.856,46.873,93.134,117.815,93.134,197.132
	c0,79.354-36.277,150.349-93.134,197.254L631.927,733.718z M593.26,656.331l-19.697-39.397l1.766-1.662
	c23.128-23.075,37.473-55.026,37.473-90.373c0-35.237-14.345-67.142-37.473-90.275l-1.818-1.664l19.75-39.447
	c37.887,31.289,62.054,78.589,62.054,131.386C655.313,577.799,631.146,625.12,593.26,656.331L593.26,656.331z" fill="#3333aa" />
<path d="M123.481,694.634c-41.733,0-64.082-21.283-64.082-63.875V119.722c0-42.618,21.309-63.88,65.121-63.88h339.64
	c42.305,0,63.822,21.262,63.822,63.88V268.78h-42.618V119.722c-0.209-21.517-0.209-21.302-21.516-21.302H123.637
	c-21.672,0-21.672,0-21.672,21.302v511.037c0,21.257,0,21.257,21.568,21.257h191.57v42.618H123.481z M144.737,396.475v-42.559
	h170.314v42.559H144.737z M144.478,311.351V268.72h255.549v42.631H144.478z M144.686,226.161v-42.616H442.8v42.616H144.686z" fill="#3333aa"/>
</svg>
